<mxfile host="app.diagrams.net" agent="Mozilla/5.0 (Windows NT 10.0; Win64; x64) AppleWebKit/537.36 (KHTML, like Gecko) Chrome/131.0.0.0 Safari/537.36" version="25.0.3">
  <diagram name="Page-1" id="urTVWf57MgEHj40ctRCR">
    <mxGraphModel dx="948" dy="443" grid="1" gridSize="10" guides="1" tooltips="1" connect="1" arrows="1" fold="1" page="1" pageScale="1" pageWidth="850" pageHeight="1100" math="0" shadow="0">
      <root>
        <mxCell id="0" />
        <mxCell id="1" parent="0" />
        <mxCell id="uCL6kulFOS3kejgTl3lf-4" style="edgeStyle=orthogonalEdgeStyle;rounded=0;orthogonalLoop=1;jettySize=auto;html=1;" edge="1" parent="1" source="uCL6kulFOS3kejgTl3lf-1" target="uCL6kulFOS3kejgTl3lf-3">
          <mxGeometry relative="1" as="geometry" />
        </mxCell>
        <mxCell id="uCL6kulFOS3kejgTl3lf-1" value="Start" style="html=1;dashed=0;whiteSpace=wrap;shape=mxgraph.dfd.start" vertex="1" parent="1">
          <mxGeometry x="380" y="60" width="80" height="30" as="geometry" />
        </mxCell>
        <mxCell id="uCL6kulFOS3kejgTl3lf-2" value="End" style="html=1;dashed=0;whiteSpace=wrap;shape=mxgraph.dfd.start" vertex="1" parent="1">
          <mxGeometry x="380" y="430" width="80" height="30" as="geometry" />
        </mxCell>
        <mxCell id="uCL6kulFOS3kejgTl3lf-26" style="edgeStyle=orthogonalEdgeStyle;rounded=0;orthogonalLoop=1;jettySize=auto;html=1;" edge="1" parent="1" source="uCL6kulFOS3kejgTl3lf-3" target="uCL6kulFOS3kejgTl3lf-5">
          <mxGeometry relative="1" as="geometry" />
        </mxCell>
        <mxCell id="uCL6kulFOS3kejgTl3lf-3" value="Input m, c, t, b" style="shape=parallelogram;perimeter=parallelogramPerimeter;whiteSpace=wrap;html=1;fixedSize=1;" vertex="1" parent="1">
          <mxGeometry x="360" y="110" width="120" height="60" as="geometry" />
        </mxCell>
        <mxCell id="uCL6kulFOS3kejgTl3lf-8" style="edgeStyle=orthogonalEdgeStyle;rounded=0;orthogonalLoop=1;jettySize=auto;html=1;" edge="1" parent="1" source="uCL6kulFOS3kejgTl3lf-5" target="uCL6kulFOS3kejgTl3lf-7">
          <mxGeometry relative="1" as="geometry" />
        </mxCell>
        <mxCell id="uCL6kulFOS3kejgTl3lf-39" style="edgeStyle=orthogonalEdgeStyle;rounded=0;orthogonalLoop=1;jettySize=auto;html=1;" edge="1" parent="1" source="uCL6kulFOS3kejgTl3lf-5" target="uCL6kulFOS3kejgTl3lf-13">
          <mxGeometry relative="1" as="geometry">
            <Array as="points">
              <mxPoint x="510" y="220" />
              <mxPoint x="510" y="75" />
            </Array>
          </mxGeometry>
        </mxCell>
        <mxCell id="uCL6kulFOS3kejgTl3lf-5" value="Call &lt;br&gt;var2calcF(m, c, t)" style="shape=process;whiteSpace=wrap;html=1;backgroundOutline=1;" vertex="1" parent="1">
          <mxGeometry x="360" y="190" width="120" height="60" as="geometry" />
        </mxCell>
        <mxCell id="uCL6kulFOS3kejgTl3lf-10" style="edgeStyle=orthogonalEdgeStyle;rounded=0;orthogonalLoop=1;jettySize=auto;html=1;" edge="1" parent="1" source="uCL6kulFOS3kejgTl3lf-7" target="uCL6kulFOS3kejgTl3lf-9">
          <mxGeometry relative="1" as="geometry" />
        </mxCell>
        <mxCell id="uCL6kulFOS3kejgTl3lf-7" value="&lt;font style=&quot;font-size: 10px;&quot;&gt;Call &lt;br&gt;var2calcZ(m, c, t, b)&lt;/font&gt;" style="shape=process;whiteSpace=wrap;html=1;backgroundOutline=1;" vertex="1" parent="1">
          <mxGeometry x="360" y="270" width="120" height="60" as="geometry" />
        </mxCell>
        <mxCell id="uCL6kulFOS3kejgTl3lf-11" style="edgeStyle=orthogonalEdgeStyle;rounded=0;orthogonalLoop=1;jettySize=auto;html=1;" edge="1" parent="1" source="uCL6kulFOS3kejgTl3lf-9" target="uCL6kulFOS3kejgTl3lf-2">
          <mxGeometry relative="1" as="geometry" />
        </mxCell>
        <mxCell id="uCL6kulFOS3kejgTl3lf-9" value="Output results &lt;br&gt;of calls" style="shape=parallelogram;perimeter=parallelogramPerimeter;whiteSpace=wrap;html=1;fixedSize=1;" vertex="1" parent="1">
          <mxGeometry x="360" y="350" width="120" height="60" as="geometry" />
        </mxCell>
        <mxCell id="uCL6kulFOS3kejgTl3lf-12" style="edgeStyle=orthogonalEdgeStyle;rounded=0;orthogonalLoop=1;jettySize=auto;html=1;" edge="1" parent="1" source="uCL6kulFOS3kejgTl3lf-13" target="uCL6kulFOS3kejgTl3lf-23">
          <mxGeometry relative="1" as="geometry">
            <mxPoint x="620" y="110.00000000000011" as="targetPoint" />
          </mxGeometry>
        </mxCell>
        <mxCell id="uCL6kulFOS3kejgTl3lf-13" value="Start" style="html=1;dashed=0;whiteSpace=wrap;shape=mxgraph.dfd.start" vertex="1" parent="1">
          <mxGeometry x="580" y="60" width="80" height="30" as="geometry" />
        </mxCell>
        <mxCell id="uCL6kulFOS3kejgTl3lf-14" value="End" style="html=1;dashed=0;whiteSpace=wrap;shape=mxgraph.dfd.start" vertex="1" parent="1">
          <mxGeometry x="580" y="270" width="80" height="30" as="geometry" />
        </mxCell>
        <mxCell id="uCL6kulFOS3kejgTl3lf-28" style="edgeStyle=orthogonalEdgeStyle;rounded=0;orthogonalLoop=1;jettySize=auto;html=1;" edge="1" parent="1" source="uCL6kulFOS3kejgTl3lf-23" target="uCL6kulFOS3kejgTl3lf-27">
          <mxGeometry relative="1" as="geometry" />
        </mxCell>
        <mxCell id="uCL6kulFOS3kejgTl3lf-23" value="Calculate value of f" style="rounded=0;whiteSpace=wrap;html=1;" vertex="1" parent="1">
          <mxGeometry x="560" y="110" width="120" height="60" as="geometry" />
        </mxCell>
        <mxCell id="uCL6kulFOS3kejgTl3lf-24" value="" style="shape=image;verticalLabelPosition=bottom;labelBackgroundColor=default;verticalAlign=top;aspect=fixed;imageAspect=0;image=data:image/png,iVBORw0KGgoAAAANSUhEUgAAAnIAAACMCAYAAAD4KUTVAAAAAXNSR0IArs4c6QAAAARnQU1BAACxjwv8YQUAAAAJcEhZcwAADsMAAA7DAcdvqGQAADpjSURBVHhe7d0JvK1VWcfxl0BEBSQcAQcwc0oIGRIkc7iKieGQaElloKUm2WA2gKjQYITkQKiIiaGWinXBIENNRBRRc0jIoUDUFFQC1EDEAc3vunvdu+66795nz2e/+zy/z2d/zt77nLPfd7/vWs/6r+d51rO2+uGPaIIgCIIgCILO8WO9n0EQBEEQBEHHCCEXBEEQBEHQUULIBUEQBEEQdJQQckEQBEEQBB0lhFwQBEEQBEFHCSEXBEEQBEHQUULIBUEQBEEQdJQQckEQBEEQBB0lhFwQBEEQBEFHCSEXBEEQBEHQUULIBUEQBEEQdJQQckEQBEEQBB0lhFwQBEEQBEFHCSEXBEEQBEHQUULIBUEQBEEQdJStfvgjes+DYKn47ne/23z/+9/vvZofP/jBD5rvfOc7vVeb2HbbbZutt96692p2+M7f+973eq+adEzHnheOXV73W9ziFs0222zTezV73Pebb76592r+x7/pppua0qze8pa3bH7sx+YzZ9b2fP98/K222qrZbrvt0vN5UB/f99b2nMc8qPvevL9/3fe0O+1vXqyVvqd9uc8ryZd59r1b3epWc2vnNSHkgqXkmmuuaU477bTm61//eu+d+fG///u/zTe/+c3eq03c5ja3ae585zvPtLMzol/72teaG2+8sffOhsFk1113nYuYM4g4/re//e3eOxsM3C677DIXg+r4V1555cbB1LXefvvtmzvc4Q5zOb7r/pWvfGWzAea2t71tc/vb334uRv76669P7Y+ggWM6tnOYB9/4xjeaa6+9duP3N4lw7d2DWeOYV199dboGGcfX57TBWaPvOf63vvWt3jsbhIy+Nw8x5/hf/epXN+t7t771rVPfm0fb0+f0vVJI7rDDDqn9TXsC6xqzM7md92Nefc/3O+SQQ5oHP/jBc7nWNSHkgqXk/PPPb4477rjNBM08YEwvu+yyvjPFe9zjHmmWOCt839qYwmDKoM0ag8gXv/jFLb7/3e9+9zSozBrC3WBWQsje7W53m+l1zxBxxEwJAX2Xu9xl5sc3qBnc6uP7/j/5kz/ZezVbvvCFL2wmJLDTTjslMTFrCIkrrrhii8H9dre7XXPHO96x92p26HtXXXXVZh453OlOd2p23nnn3qvZwRP8+c9/vvdqE7O2OZnrrrsutb8SAlbbn7ZX9Mtf/vJmgr0fjs/2zENIP+IRj2iOP/74uVzrmhBywdJx6aWXNi94wQuaz33uc81+++3Xe3d+8IjccMMNvVeb4BXgHZgl2SvAqGfMEOfpkXP8MrzFsM3LK+D4BlPXIcMTSsTOyyNXD2a8UfPwCsDgVnrEQETMyyPHE01M5+O75iYR8xDxqD1i2SM4L4+cvl8KWcfX9uflkdP2yr5HQM06CpAhYPW9UkjPqu+5x671SvJlXn3PZOnwww9vHvawh/XemS8h5IKl41WvelVz+umnN7vvvnvzlre8pffufCmFRGba4YV+6NKlMWXE5iFiMo5dmhXHnsdAklnt49f3fl73PbNIx59328NqHr/ue/Nue6t9/Hn2vfpYbcyz7c8iF3BYQsgFS8dTnvKUFN488sgjm6OOOqr3bhAEQRAsH/OdKgXBjJGjQ8SZia1bt673bhAEQRAsJyHkgqVi/fr16ecee+wxlwTrIAiCIFhNQsgFS4ME//POOy89f8ADHjCXBOcgCIIgWE1CyAVLwyWXXJJKL1gluddee821CG4QBEEQrAYh5IKlwJqdiy++OP203F7tpCAIgiBYdkLIBUuB2lWf+cxnkpBTgFIB2CAIgiBYdkLIBUuB3QRU+8a+++4b+XFBEATBmiCEXNB5eOEuv/zyVOlbAcqDDjqo95sgCIIgWG5CyAWd57vf/W7zsY99LFV0t6ek0iNBEARBsBYIIRd0HnsLEnJ43OMeN9cteYIgCIJgNYkRL+g8H/7wh9NiBxtEH3zwwb13gyAIgmD5CSEXdJ63v/3t6aciwDvuuGN6HgRBEARrgRByQae5+uqrN4ZVDzzwwGarrbZKz4MgCIJgLRBCLug0H/jAB5rvfe97zc4779zc5z73CSEXBEEQrClCyAWdhYAj5LD77rs3u+22W3oeBEEQBGuFEHJBZ1EAWCFgq1SVHbn97W/f+00QBEEQrA1CyAWd5bOf/WxzzTXXNLe4xS2affbZp9l66617vwmCIAiCtUEIuaCTKAJsb9Vvfetbzfbbb9/svffevd8EQRAEwdohhFzQSa6//vrm0ksvTc/322+/5na3u116HgRBEARriRByQSexr6rQKg499ND0MwiCIAjWGiHkgk5ywQUXpFWrd7jDHZr999+/924QBEEQrC1CyAWd4wc/+EHzb//2b+n5z/3cz8UihyBY4/DQv/Wtb20uueSS3jtBMD1uvvnm5p3vfGezfv36lNazaISQCzrHpz/96VR2hIAj5IIgWLv88Ic/bC666KLm5JNPbo455pjeu0EwPb7whS80L3vZy5pXv/rVzUc+8pHeu4vDQgk5HfKmm25qbrzxxhQ2C4I23vWud6W2cre73a25y13u0ns3CIK1inHjO9/5TvLMBcG0USWBLtHOvv3tb/feXRwWQsh9//vfT16WN7/5zc3LX/7y5sQTT2xe9apXJVfmV77yld5fBcGG1aof+tCH0nNbckUR4CAIgmAts+pCjuftlFNOaY4++ujmFa94RfOP//iPzbnnntu88Y1vbP7yL/+yOf7445v//M//7P110CXkFchZOfXUU5sTTjgh3d9/+Zd/STObcVE77tprr2223Xbb5r73vW9z61vfuvebIAjWKjz0QTArFr19raqQ+8Y3vtE8+9nPbt70pjc1V155Zcp5etCDHtQ86lGPSp6WG264ofnoRz/avOhFL1pId2bQH56zP/qjP2qOOuqo5h3veEdzxRVXNO95z3uaP/3TP0339+1vf/vI4XOd6ZOf/GRqFzvssEOz5557xib5QRAEY8KmlmHDEMTdZNWE3De/+c0URjUw4za3uU3zvOc9r3npS1/a/PzP/3yzyy67pPchsd3AH3QD4fDf//3fb772ta+lMDkv62mnndacccYZzSGHHJIMBu/cWWedlcLqw/J///d/qXYcT9+d73zntL9qEARBCJDRYXtNri0QOfzww5vnPOc5zfnnnx/56S2ER64PH/jAB5r3vve9qZQEfvqnf7p5+MMf3lx22WXNS17yko1V+zMXXnhh71mwyOTSIHIeJR8zCvZCxY//+I83hx12WNrknih7wxve0Hz9619PvxsGiczaB372Z3+22W677dLzIAiCYDTe9ra3NX/+53+eanJ++ctfbj7xiU80r33ta5vPf/7zvb8IusKqCDnq9uyzz077ZGbuec97pj0zzzzzzOaqq67qvbsJg3+w+BBvn/vc55K7nkHgjbvuuut6v22au971rhvDoV/96lc3CrNh8Lm5bQjPBssHb+s//dM/NY9+9KObgw8+uPMTOOkjv/M7v9M87GEPa4499tjUL4Jgtfmf//mfZJulqZSIoizbAkNRnCOOOKJ58IMfnCJ+pe5YFlZFHf3Hf/xHemRuectbNrvttluzzTbbpFyqGgP/Yx7zmN6rYJFxD+17Kt+R+L7tbW+b3ssYyLKb2n0dxav2vve9L/20yEHpkWD5eP3rX9/81V/9VfK+mgDwEPAWdBETmac85SnNBz/4wZQzet5556X0giBYbdRFk95Us9NOO6XdcpYFk38pWxZMyrM3Sfz3f//33m9HY5HDq6si5BTVKy+K/Lhdd901PVdSosRgf8ABB0Th144gjPr4xz++efrTn9489alPbX7t136t2XHHHXu/3TATzMhz46EbBrOoD3/4w+m5HMpg+TCw/MM//MPGdIuuI8Wg9EZ3CRNt6RGLnhuU6cp5Lgom2BwoNdKbfuInfqL3qvuYPIn8lCxjW5m7kGPYSm8chFSzkHva057W7Lfffsmb4yHEYvUjsRd0A+LMfXzmM5/Z3Ote99psZakacAZq7wk3MSjD8P73vz8N9MqNyI8Llo+Pf/zjKXeyZOedd27ueMc79l51ByGrvDCn5AEPeEDv2eLCPv/Jn/xJWmGu3E+wfIhqPOQhD+m9alI5JxPv3/zN32wVeF0lb+WYES0ap/booou/uQs5Ls56xs1jc6c73Sk991MxYPXGFARmTIb12gSLg3BqXuQAA5oBQmItfuZnfqZ50pOelAzISuhE55xzTnr+Uz/1U0OLv6BbtG19s8ceewzVRhaNq6++eotcX9/j/ve/f+/V4mKyTVBbiCTHrwuER240tEUOkte97nVpjJWbLpdzmRaQif586Utf6r3agLDxMhaRXxUhV8NYlw2IJ84Ft8ox6C6Wt8tHUCfwla98ZSrwzFPx5Cc/ufnjP/7joQW6AVG70S722muv5MENlguhc6G8El7bOtWiK7QljfsuXRgoQxStHVSLUBJqGbc6vPjii3vPNsG7z8s/KuGRKzCwSz6s4WUJlg+eVwnfxBwhJuHbqlZe11ESav2/RRKKABsMy8UTwXJg9tyWTyYE1DUY/csvv3yL1XFdCKsihFywDNRCjiNg9913X6rQcWauQs7WSh4197vf/XrPgmWC+573TfFfBYHVjdt7772bk08+uTnyyCNTqHWlQYP4lzulHh3xJ+cuWD6soqvz43jku7g6WZtWB7Ns27yL++yzT+/VYrMsi02CtQudwaaUcAAs6/gxVyEnb6QuACvUcI973KP3Klhm5Cb87u/+bsqJ5LEQavVzEMKquUCl1VTljh/BciB/0u4t9R68VtCVC2W6AiFUh4m1fSkkXaCLHrnwIgYlypjVHnGOhXGjf4vevuYq5K655potatcoBLxMCZbBYHhY9t9///RcmP2UU05Jz/shWTUnrCroyD0eLBcEHLFeG0sFgbuIMLFJawlPQFdW3ocoCroOe1JPDG3puEw18krmNioyDop81pWkJa8HywWPhJBovxBNuXLvoosuSonhbWgzcuu0GW7xWZQdcYz8GJXyf8f5f0zjM7qO+5u9rhle23mFIqd9/W0/WLf9EHKzZZ7nXLaXWR53FseZ1eeNSnke4/z/IKThCKvKxy556EMf2kkP/zBs9aOLONWryIDxulHD5Ucb2N/4xjdusfm9zdXLejZwse0MoMp0eOu6heKLcuA++clPNgcddFDzrGc9a4tVQn//93/fvOxlL+u9atISeKunarSZ3/iN30hi7pGPfGQKxU4LbfO///u/m0suuSR5ig2yvIXCX3726/BEBw+hSQnPi9f+1kpa/yv0K6F2kMHIn8FrY2WjEg88jdq7/7XLiWLJ+sCywC64zoxsbXIYXauYS8NrYcCLXvSi3qtNKGkjTDnJtXF8909bdQ9NJJyXnDz30AILC2sGIZ9P6KauEwfnrf1nJFc/4xnPaNatW9d7ZwPaiHbnvi8S73jHO5o/+7M/S2Lad3nQgx7U+81i4n4aW9gd7SIXDp8WPt/91le1GQ8pQvqsNqOvWg3JbqhzOQnalDapfWbb4PjaCbvAo8RGrNQ+a7RxdQ1FQXK+sWiYtKZxqgD4PHmgQpjasXO7+93vniYsZdmpEv3bLi3+l/3LpW1cM/3OZ3gMU27INbF4ji2tJ030h7bwsY99rPfOBkR/2lbnGp9Wum/682//9m+n52zVL/zCL6Tn4+IeOE/Xyr2cNNI0dSGnESo1YZAqP9rFlu9U1yXSKNsaki/42Mc+tjn00EN77wRdgFD/i7/4i3S/GR+FRRV1LiHc7O6RUSOuLfdN3pQtjqxY/Zu/+ZvmwAMP7P1mcmzV8uY3vzkZlDwYG3AZFPu4WqRRrm4iKnkP//Vf/7X5r//6r2SM6n0zs7FV6PiXf/mXW40tb42BUqFVA4IOnWEQ1chjbHgfnUO5K0aXUSPOfS+3aMsYvGqPnAHStaxh5I877riNBcRHxTV3/RWmvvLKK5O4zPc/X/8HPvCBza//+q+nUAzcbzlvBqp99903na9JhYG2TciZIJRtg7jwXdruJa+jIqy3utWteu+sPmp42kw9hNyGvXLVM9Ve2CP9vvb0sBNW4msbv/qrv5rayTiwDeyLtmb8rI+j7Stoa9LLNuy5556pzQ7CtXnve9+bbJ12mfPGCAfi0+Kz3/qt32rta/0g3v76r/86LVbL5+i6E7ScMgoL17XaiEj7q/sfOqAOe2bbKYfNQriV+rfvYSs/wrAWcmwqu14fw2e3XS9Ogl/5lV/pvWpnWkLO/cjXQnviqHI/jReT2ICpCzkFX//wD/9wC2M9Dgz2pMo3mC82Yj7hhBPScwL9+c9/fuooJcccc0zzrne9Kz03g+Oha+tgCkOffvrpyUC89a1vTZ19GhCbzlGH99lm0mZveVDWuXgCbS/GQJn1WXlLAGQhwnib0TpvHiV/k/E/vC++Z56kONapp57avOUtb9n4GQyzBRzCxnVyrvfUd3ruc5871ox50SDo6yrr40Bo2Y/VPRsVA+WJJ56YBuN8r83E86r5yy67LM2S3VP35cUvfnEaBK22ds/cV9/DpIONq1fZjoO+wc6Vk4bVpotCzj0y2ZuWkNM+9PeXv/zlqV+ayGV4cAgN7+VKDMQEcaRd/t3f/d1IfZZtcO4ml9k2aINsE0eH1zxpvHTwO8JRJYBBgsf/nXnmmckTZZ9RzhETVd/HJAY+y/099thjh8ofIz7s2qPtm6hKkyFysu1y/TlfRNrYa9fxbW97W3LuEH35OjkPvzexKvNJnQ9ho90NqjOqrx5++OHpO06KHYhMpgZBgD7nOc9JzycRcr7vUUcdlRxe+dxdM9Grk046aWzP3NSFHMOngdUfe9NNN22x+bXGrkG6eSVea3Q60TjF+4LVg6fp937v99KA+IQnPCF16NJVzhiZffg9Q2DA0IhrGLRf/MVfTA2fYSCK+rnsR8FMTUVzq2V5zjw3eyRAX/KSl2wc4Blkr7VR7fA973lPGvTldPpezjl/LzM/A0ke8MFI6fC8kYwmY6pvmHUxVD6DAc2f4f+IVp6FPMsl5nxvnumuwzDzbNX43oxaiWvELvj+NbwePAjDDpTskIGWR8L9yXaJXXnc4x6XBoNceFzbJLQ93ANtoD43BtzDwGRwrOGlKwU5tK+28CkDfsQRR2wx0Vlt1rqQM6niPT7//POTyDIe8V7l3WhMPnPbJEyUR3LsT33qU+k9W0zyDpZ2rx8Ekf81ucxRDPuKs31EUrZ5RCPbatKrPpo2JgXAWNvmyXFNbGvIc6xdi2ZIc/E/PGLERBZz/t/uDuzhIBzz+OOPT3aMd4v4M5l1HHYq9wefR5Q4/zPOOCP1PedvwmRyahFTjlawt+9+97vT3+donevN42gS6362ISXGd6t1BmqPn8/j7WtL03KPTOpX8gBOS8jxZLoebRhvVroH/Zi6kNPwFfas3Z0f/OAHt8hxEsKSO1I3eBfeoDnLsJJZeZshXgRcj3FDR6uNa0qMGAxtbk/wED8MFPGkY/PGGYgNYgbSNoGm4/CK+d3RRx+dxJx2MQmMiU3ZecZcY8Y6bxAtnGGLmtKYCBE4Z21XuOTpT396WjnbJiL8H9EqbyRDdMg1Yih4g8ywzf4Y6rawK8PKOJafYebKGzlpDsVqw2Mpp6Xmox/9aBocSg444IBUpqbtOnuv7dr1w2yf8bzwwguTbQIhzavgOPVAoY0YHHn92kyjNiIMIyRb2zhtX1pBmR8Hhr9toY42JlQ2jQnKNFmrQs79fN/73pfsgvAX3CPCTHvRn+t+qH0ZmIVfS8+SNrTSYh3Hs+vN3/7t3ybhoW1rW8KzbeKMM8Rx2K/snXvpS1+a7EmNiTLhwa65f4QW+wP/awJb2hkTS9GTfrjGJrO81Nq5n1l0SIvgqS6L/T/iEY9IbVsIkYBiS4m4Nq+fzyPkyvx5Ex92z2e04dr5HnUfhO9d1pAzUdOOs60v0fdM6layr9MSck984hOTV7MNDo7nPe95vVejMXUh1w+hKQN8iQsjfDXvQUrj1pDbGsEiwHgQL13dHF7HNMticBgfAy8Dy1hJEja7df3NcPuFlBhlok++mMFxGrt/EFvanJktw8W4ZXGoTRAPZZ1DBohnhgFwPwjS/Pc1viejun79+t47G4yE8zZ7lFRMsJjN9/sMxzIzZqwz/lbIZZxQYheoZ6hsAXHvXvS7TsPC2ycEKr8pe1qFqhh1+UX9MMnTTnhmaoT7tds2iH5tqv4/woiHsSt0UcixFbze4wo5nyH0rw9nkQR9Xi4Wr2rdHvVXgo2XzASghH3jVRoEscXDl3c0scCHoOm3l7RJqNxi9jUjb8uEuEa/MpnW7kxKSgHFa1yLHWONyEM/HNN1OPfcc9PuOj4zT0B4rbX7LH5hoqzPEWT6INHXz7vm2rMBjl+Oya6FlaajwPtOMOb+DhM37XmSGqSf+MQn0iQOkwg5esf404bcQJ7ScZibgqpXkBjAXdjV8DRowDm3YZYPHXTQg2jo95AD0FXMJoUDCRD5P2ZnZrNCWQZCMy+erX4ijucmezXkSQy7J+tKmDkyNgyQTlMaZsesc56yCOVFYwwGCQvtuP4+PEBmcmZ8Oui9733vgZ/B0NXeGUauTklYFgx+RFaJAWCQ2B0W9+6FL3xhWqCSjbr7Y9Y7SMTB/dI+63Nwj/MCiDbcJ566Eh7VLom4tYp+ytlQijjtUAidCGprj2w88VeLOLSF8WqIIeNARoi9n4jjxSGiShGHNq+1dsib5ZzZ3NqrpY3msGqm7XNKnGcWyMRIaafYufq8TKLYM5OyQSIOztPn1de4XgA1DMK8pYiD8WNRVoYT7rWNhwikCOW4zEVF8cTUFfxd2Hply7ywssZMRuhuWg/JksLE+WHwL597yFHwkONTPp797GdvfBjwKX85El2HoOP2N/vjtvdd28ITNVz0cuN0bHkW0wqxn3POOUkYmWXXoWv5W7UBkAfj/g0zK/S5OXRXI1QyzIpbx28bFJYVEypeiRJCbtKN8l1HXiXh7BLe0cc85jG9V/1haBn/2uASZTmfroYnwWBbh4/bwl7BYkH48DaxORnijS1uC3FmeOTK/8mYMAjHDoLwOeuss3qvNjBoPDS5ryeazs0K6xLtUL6vn7z42l9tb88777zNbJXfs4mDsN81kUvwmeSUEHllWDlDmBAug0Rcht2rI2Rs6qgQciX6sH476D7OE06Nww47bKNgd+3dJyFV+YbjMhchR8TlJPCML9Iv/j1r5GvJRSC+pvUg5uRQ5Yecivzg/fHgAvdQ2sBD3oCHGU5+GPR5DfrNzJYdnZc30qyRAZDHNA0YXSuq0RYay4nKJWaSchraZuM1DJEZeo3z9xltifs1jHu5+jUz67aQr/lrX/va5jWveU1K3h7HiI6Kcgj1TN5gNmkYmaDikeCVKxl2ib97KbxaC/N6ACvRvnyf+rqFkJsP47ZXCfxyt0tHg/4ut9ekcxAEmzSREv3cYq+Vwngmq/WiGOkd/eDVLcOjjmPCX9dFI7ZEv3wHiwvq7S8dk5Ar8dkr7XeebadyJXXNNd+l7sdyiqVH1H/bhv4m7aW+h6PqA7ZTzdES/X2QF31YpmUPXQ9OHSF8IVoRK4scxg3VZuYi5NpWq/HIrZaQCxYXg6+wqs4txLVSGGxYtEEdXccWJi3RScvEXzg2sd3mBm/DQF7nRum0PJHDzgYZszK0A2LWjHJW8F7xDJiIEHHEHC+kRRr9PIzTwDU3eLpuJUT2MKJ3ELxx9b3ggX34wx/eezUYbZCwLY23gXHQijLfo8wRAvvWlmAdLAbur7pt8p9KTPTd65XCo0Scybf77H+IF/2dF2qlyV8dgodyJ1IBtL86OkAYyrGVd8ejo6/6WR8npw2xW0RXbb8sNKu94ELIgyZPzsXkji1qy5eUA1zCyyS6NGw4U9+pV4dDKsoo6LPlalWwwZN4umYBr6YxSDuRz8dGrBSlWom5CDkz1RoraFaKywdrD2JLvgqsVJ20gWe0N8KMgalnqQRFHRpgRNpWWPWDAKvzToSFR5msCFHwBJUwssPMasdFORbirfYO/PM//3PfZfLTQJiI56wOp0y6wMd9LFe/ZSxuGRaDQZ2j6j4OGhDa7r9SD5OK0mHJwpiYnPQhGd7nmUwJO7b9zagP+U6lMJ4243y2sCjvVB0tsiBmJW8c3FvCyiIEq2Y9hi1g35YfrO1aVPUHf/AHaREFkUlAuQfuBbFlEYUVov1ydnnonJPIT+1BJhCll5QQer7rSukrbKfJXt0/ibx6EmzSNIp4cl71xEsKg/swCjya9eRTisQodryrzHzVqgsrNyoPzhnuZ2HEIChRo4ixIuB4iuZRhiWHFDMM5C/90i+l0MCwHjllBOpVX8LpciKHyRGBVWZWm5VdkkHOFcVngRAk134bDLzzmcWEq61kAa+GgXWSfBYFf88888zeqw1YsCJpfaXwUYaHxn0rvSLyJOVR9buX9bZz4NmUZjHs/Z8E+YBWehvwJ4Wo59XRB4W6h0ncXwmfIQ/Iysxpo79YOGAhlWs97KpVq8OtEq+9wsoIrVTpf1KINvmag4Zf+aIEjUmEtmvhgsnBuBCFVpCWHjkCTgHjcdMZTB7svlN+D2LPaud++aQ1hKBwYymoiVB2adiJEJ2hugFvfHku/Vb1joprZzzAJKtWZ8XMPXJcyLUrF4vm7gza4TFRgHJemIXqiAzWvGrpqR1VYrYsnDmsiIOQSIn/5U0bZRBXr640QozYqMvvR0USdT/MlKchDNpwXJ6GEh7MSUQcb26bN87MfhTPKCFQh7ac2yDvcH3/CRee33mIOIh6EMW8nJM+2Gzt0DXgIW77m1EfPJx+LhLqotUiziRO/ctZIyy7Uv4vYeP68zSpACAX289xcD+16zoHl7CeJCeV7SxtFvS3URaoKbxce0Ut4hil74hm8IjX5zKt0jn15y4aMxdyGmIdtmEQ6/BWsHgYyBWrlAxcd7RZQPATMxiUWD5NzIzrAYZnaJTcJqG4OrzAnZ8LcA6DUGPttTbZmXVYgMHs53ERXp7WiuEag1M9iO6///69Z+MhhFcLMLA1o3yPuiRKzrPpl/fEvtVFgN23SepWjYoyD6IceWX8JA+5hAZRoprXqO1vRn3wxskHWhT02fo+w+rNUUT/JLgm9WKFfhAS7DFbzINW952VIM7lspX9wzhsAdC4mOTXk2BtxiR4WBHGk0bIlbj+Fij0629tSG2QElCyUjrEMjFzIScPoU5ANBtZrdIjwfBIjLVPni1P6tVAs8DSccZKKKxekDArfK968BdKHGWiYRB33iVWgo1SP0yYp+4nvECzXrFKrBlga++j94VMBnmhJqFOMHf8SRe2KLRZ59wJTxHlw4YHzezrxVkE+aB76f7XA+u8hZzvJ1Ull0Oa5KE8k/tOwCoh0fY3oz7kbbkXi4JJU93fMEyZoGmRc96U2xlFtEgdqCcOK2ExQd2u9YtJQt0mwXWtt1FtJ/tb55a6LsMK3IzPqBeQmBjOyn4tGjP9lmYRbULOapq1coG7Co+JnJ8ceqvr88yCvKm6Gd28wqrKjtThQ7PBUTw4aizVGMRHmayo/VRiZiu8PKwAGReDtTp/BhTf27WX2GyvyFmulq29j+73JN5HYtxAVQs53lXfY9iB0pZhdcI0IVeXmShpu/+SrIfNEQrmz0c+8pHes01oIyvVf5smjie8KrdWKRH9fRhPFu+TsPAoURKh/7oOnQncJItx2M66r4wq5DgLSlwTXrRB/a2GzjCJq+34tEpXdYGZqimzVO7O2rgOsyJoljgf+TllDsciPawkbAsRzQOdwoDIsJTFTdUmqr1O08R3tnReRyYoZh1ShJCYGWXdPvttwdQG41GLEpMUycnDTlbkD9WrtpQ/GTY5f1J4QK3qtEqVB5awm2V4SRi6zpsdNa+mRtts28vVwDLK6rc6H1R75CHo5xk1kNXeEf/Dm+pnsJi0bZNEPMwrrJphI0z4lDGx6lUJEjXGLJLhHXROdTvKwmVYIefv8iQ543tO4n10DoRcPU7x5Js8DYNyS/UkiLBkf0fpO86lLoFiIjyNbR27wkyFHOMqLFez2kKOO/e5z31uWtGyiA+rY3Ku2LwhqHjidLISq9jKopnThlFwTAsN5KmMstBgXIQG6srsDOsoQs6EoHbpm1UPa0QYIUbWzxJhj1qA+BvXqC0k1CWsTC5htH3XQatjfXcehX6DlwGlbfJDpA7rGSXs66KsBpZB91J/qQtBZyE3CPewTXgG86HO2wYv6ixL/UAIUE6Y3DJh/BLthsBSRFqlB4LOHqHr1q3bQtg4/3oC2g/RlHoclrrS5vXSJofJv3N8k8/abo1iOzkH6r7j+7fpA4s0nFt9PPhdXS6IF17fH4Qixvph22d2jZkKOReqTkBUJHDU+Pe0MfBqhM5tER/yGeoVffPAIGlxQ+1hAg9KWz3AaeC4BlDGgSGdRYmCNizEqYUcYz5KWNdKwXpANiO1YnUYGDJL22ts5VKLWbXdrFyztL/OK+kS/RKkB4V5lIiRayXk2zYIE+Bts3gCcdhJQduWYc5pkCjj0a3vP2/qoLB0Lr2i5IIQWTB/2kKY8iBnlcpALKg3Z6JOnCl7YnFKm6Mjo93us88+qa5cnTPs/Nvae43j8vSVmCyzsbXQIfh4Ao899tgVJ4ttthP1lmH9YPPZvXoV7aMf/egtPPMEX3ZwtNlKXr16Zwnh2UGiXHiaPWFPazHZRWYq5DQGwqRkGlWMJ8WqLDWhjjnmmIV86OjqmM0TIcIzzjgjufbbZnq8q4TcqKulhsHgScgxOhJ/55Ef51jC2HXeiHDDsO3TZ5gQ1MKCMWsr+NlGW1kGnql6FwIhPIM+EaBfDRu+WDRMUGqbsFJeDc+pene+u+valjRPDLZdk1HakntR30uDO3HfhvtP/NWDkTpa/USpvqUMhMGHN2+Ulc3B9Gi77trQoMnEMOintY3UTvRdk2T3nM1h86yyVm5pJUwM6jCoNjnMuQrB1t4quZu8XqUQdI6EJns2TAoNEadflhjbh13gRUhJSXDcDOFaj3t+r6/4Ho7Xln5Rr3olctkT97MNn2nlrxQizye95+OgjZgAsuXDelYHMVNFZYCqG/WiLAfmrrYx/SI+1DGap9hlfBTf5fUwUBqI2o6v4dcei2lgdpfDtvMqUaDz1CtxGbZR6g4ZwBm+uiMOuxUU8Wz1Zl3LTbHJ2jPA80cEuS9y57q6F69rXl8vxrlfLSvXiCeSwBJ2kcDc5mFjvHn6ay/FsP3I4CoBvh7EBu2V6pza7v+g/xFOe/e73536nMHUxCWYP23ljQzow3i5+mFQPvPMM5tXvOIVm3l5vM8LXU8aiYg273IbZTv2XLh/pVXA2qXj1osA5LHVEydRIN4u12BQSSI4bxOY2hM9yq4sxGVZDBzEap0GUZZNsQVanW5CX9QFoHkaCd1+95JD4txzz03fVZ3OeU6K3RMCVhtRfsZeq5wn7MEkzFQttCWUrpW6Ll1Bp1QV/vTTT0/PdSbVv9tKJ+h4s3BDG0CJIh1wXvXjdKi69huhMMpKTYbZQF7CAA67WooRskrSdc8wziq4lzBiZqU8WYzPIx/5yIkGnNXEAFALHzahX34cL5zSLAYj11X+ZD+shq9DZnWuZz+sGhZaKu8FlOLoR1vqiPs3KAfYFknyQbV1ebptIb5g9piw1V5zgqsWPcOij9pVgB21YKhMHzD5re0E3PuVcilhkOe9y1gIJtS6UtsxQSSC6v5mG7HSC6XNEza+Aw+29jtoAuQaacNlX2GPDjrooN6rlbnwwgs3Ey/+/+CDD+692oQxx7Hw+Mc/fotJHCdA3cdNDPt50d1ji7r89Dcm3cOmXkwD9s8+1tqIkDFvolxIjpRJmKuQE7Ne7fy4YHPkaNjah6vbbEg+BhEnR6tG46/rf02DnCfEuM5rdiQ0UOchWi07yvF5V+qwqBICw34Gg1j/PyFZh30IxuzFISyGzb9bRNoGyn714wxAwv3EHNshAXxQyFrpiLrkR9vKuhLHEFKyvVOdZ2NAGFTP0EBWfzaPQb/7r++8+tWvTv9jC6hJKuoHkyFcWXvOjVe112wY3E9hU1tKEW0EgslWxu9rTy/hwqtmc/6VEFIsV1Nrk4MmNBnnUosc/aOenAj35sV1vHEreYl9nzqaIaQ6Snuua9oZe9oWd2VvPA9ieU0zbZ4sk6Tddtut92oTPo/AzqFY+XjzdixJESHmShGszbXZn1GYmZBzs+vkeANU1FZaLIgoXgUN376a2RPXL7xrJjVNDNLaidnlMEZtWrStnCSQ+uVVtGFgroXJKAs1HLMOjxCT5XsMldmbGTljadP/LtMmxNq8ccI2BkfeOAuk7KO4Uv4Nb6hwRXkMbZvHtzScGWKesDKRaUOi+SD0j3o235Zgnb2/ZuIQgqq9rsH8cQ/KUB6vWVt9uX5I2GcDnv/856e0FO1BEdpTTz01iYmMdsnbD32e1+uJT3xiWrjj9SBMNrUbk2gQiU996lOH8iI5n9qGE4HlMX2Hs88+O6W2SNeQo7bSOZn8155otnNQOLam/lvjTpkuos+sX78+reh3LfvZvbZjGktqu6r/W8Tn3hBMUqtWY6/3fvsAi0iZrI/LzIScVXV17o/lzmZCweJgCx6GgSeurFtmptLmnjYgTTO8mjc5JvLn6WmqV04yCGZ9o7jZa6Pvf0fZncDf17Nf3pxsSIk4eyvySjk/K6z6hQy6Qlt9PR6BEh4Im9wLUxFGamwNW/NKzouaeDnsxAa95jWvSbNwoltbMxCZGVv9a7N717k2/FhJyLlXPKjlwOfcTWJLtJMTTjghDcq8DjbTH7YkSjA7eMQIqtzn3TcD/XnnnZde94MQkBJx0kknNS984QvTZFioUm6rxWp1WQ8TEW0phzNNSBx3kOfeuTiGCUyOgsgRI+qGzavkNMkCMuNcMsSSMKP9idkXm8HXXrE25NKVEyPtX95dm6jqR51+YPKVr49+aqLNS8VWuK79+r9rXZ8z72epPYhV44z+ru8LAUsfauvzs2ZQiaXaSzkKMxNy9YoUGKzLhhSsPjq6gaXOTdM522oCyeuSUzcNdLAcVjXAz8tby0jmvIuMCcYwRqykTh0wq2zLLewHw8cLWRqUvHWQ3A9Gm7eIYSO423JIugaDXBtlXre8GtcgKoRqNu57W/xjq7Ayp2cQBJwSCq6VQYANcq9f8IIXpHQB4Rn7S6qVKEfF3yt+XYdY3JuVCjLz3jpOOVjyVLz+9a9P4lAIxeBhksRIa9/yYQzEK3k9gtnj/h1xxBGb9StCnHhSgkNCPltB8EijIMhPOeWUtK+tUhjymtxv91UVBEKobaJFKBJu2pP2aGxkc7UNOZPavhCoB88YYUVoKE9CzIFdIRKHyanL8HBJN8iTGgjR8v5om74jj7TQpVI4baHLNuoC2ASpFavD9lHwiJVOHSkm0nuEGU28VG4QGhZC5jnrl1Lh2rqO5bFzrT72QyTD97RHLRFnoq0/1gJ3XshP7EedZjMKW/2oYW0Zc5gCBiENMuOCa/yTbNIbzBciS9hAhyiRy2bVzaSDkZmdTmWGe9RRR6UOO48BzmxN6Lj0nMiX0WYH5WCVGKj9T85rIBqILaG9QTPtGquyhLTNQOvrDHlacjnUURol7LvIMNaukzwbYh7uezZFBh4z7Sc96Ukpl6wciIbFfeF1swWQwVmo1v12HF4+g4gwE28fD4k9RcsV9oSdwZkXZBDO+U1velPy7JWFocvv474JuVvcMOpkYTXgvTCQansGyVFWcq8GrjPxzIOjrfQLX/VDu7DalPebd7i0C23o6zwrQqQmwETaMB5WwuTFL35xWoAgqkEgDoI4sbCBB8m2eaNMEjNsnZp1BFybfeFYUSlATTX3exicSzkRJi6J37a8tH7wmok0yE9tW7lrIsWLyeO50rXN999nlTmBZR90v3yePjhOnr5JH2ENgp2XcBx8V7mUFlZpD9qS89Tm2KMcoh+VrY+z/nXKaDCnnXbaZpWrGTNGeZzGGKwO7iMDUCcAGyTN3ga5iVdCB1NDidFlTAj8edSPAw8Y7w+jbYLBU3PkkUduERIZhAHD9TGz1fHMMM3UR23fRIVZJzHhcxg4PwkNs2lCg0dqlLDFokMsS6rOeUQ8BNoDG8FbZdaaPSXjGDW4r1axykcTQjPYuM68gUQ8kfjYxz42DZSMah1O87/E3UrCnhH2uXIbDbzEoP6Rxajjyzti+0YZ6FYTnii5sL67UHUXwvk82VZ2ay9SEEbB/2gj7rl7xJOlb5usaZfuK1vnd+61dmkFpXvq+rTlRbahD1towDOnbbB72ikcw+c4thQT7cYETtvhlS5z7kZBnyLE/fSd9DU4vr7Ae+27jGLLnTPPoetDHLGdvpO+MCy+r3CsBRKuiz7j/02C3YsnP/nJzbOe9ayhojT+j90w6dLv9EF21Hmyq2yzz3va0542tieO5zXbCPdm3DQgY49Jne/OZvgs5+vzRSzZpFGuY2YmHjm5IBR+OUN1QS3x16CCbmA2d/zxx28RSmVwzJTaVrYOi9kID9gFF1yQGrWZyLAGcRroPCYamj+DOs6xfYZrZDblM0bxxNU4j7JAJIPknBjYcTp2F8gDS/7OBlT2waDF0E8bx3At6+vJ68QLlXEehKQQ77DX3v0zePg+2gUMJO7fJO1iNVhrHrkSbYSo0CZ5i/Pw6HPdT+JWG520fRJBWXBkwaitaXsGe8dwrGn1fX2NffHdfEffRbscZzLO3vEoOm//r51Mcp6utX7jHH1OtgGu+Si4hj6L18u981m+p88iFic5x2l55Eqcr2tpjOXUkDcorDwOM8mRU1wwG7OMIpkh4roFcSLExLiUMD5c6wzCuMgBywUheWfmKeLASPKe8QKOe2yfYRZlpj7pYM3IMIg+zzmZ+DBAkxifRcdgqI35vsIdfpqBz0LEQTuur6fBiCenRHsw4x7l2vtb9o2Hz3fxcA+7JuLWOtqIe+Y+6tf5XrIVQnzTmmRkke8zsx3yU5vRByYVHjXO2efmvuY444g4EFg8etl7Oel56m8+L18DNmFUEQfn4d75LN/R+XmuX07zWk4L50TA5nCw7z8uMxFywk2lkHPC3MRBt3DfhKTqsB4BR4TVNYpGwVL/vISd6zsIVgMhohxuyhhYhl0ZGARBMC4iOrkKxCQ17cYSclygyjdYWSMf4XWve106ofw7oVUz3Qx1vNIKsGAxIeTaPKnEuiTycfnQhz6U2orkb6HVIJgEE0d2R2hlFCy4KG0VzOR5BtYqQnsmcbxTPEdBEMwGIi6Po3I0x2VkISeum5dHW2mnxo3aO1aI8dSIw/O05NwCBkEC36zCJcFs4fpvE+HusYFzHOQFXHTRRem5xPNoG8G4aEtKDVgQImmbd9cKRO+vhBQB9qsWctJAxgntLAsS+OU4e0wyuARB0B8aSVqHyJbJo0Ue4zKykFOFX7mEMj/KCal3w8PipMoB3sx20H6FweLTVl/IPR83qdh2MDy4QrYGjSAYBzbIFj5HH310yssFUaYcSF0nsA0rHT1KGFTlGNYyvHBW+JXFcoMgmC60Ul5kpa9NwshCzhLcXPupJK+wUYzPA15b4jxJEl+w+lgiXefJYZTtbEqsXoaQqqTbIBgHW2yp/VV730QFyhXzbfgbKSFlegAbZqXqahULDYJg7WBXDTaMPpp0DcHIQq6t+rBcigMOOCCFI3hbstATlhNWbRMBQXewmrJtD1GCfdRtReQEZE+eGkSxkjkYl355mlbjDRJjSjAosJy3PgLbpdbUPPf7DYJgbULAveENb0jPpRdNunXpyELOsuwSK7yEIpzMpz/96Y1F8+Q9qdQ/Sdw3WBzqLbwy5557bu/ZcFjkICRmGb/cu8iPC8aF+KpL48Cksq1gpwURclJsyVWGXk0mFF215zCvXBAEwayQViQ9TSqalarqsU6akzuykFN1vRx81Wkh1hSNVTzSLgB+b3Z72GGH9f4q6DoqmhNfNRLN20LtbWi4BlJCTr00m9QHwbhoP1bEl8jpMtlkj2wxZ0GWbbpsoWW/RRvZ5Lw4IvC+971vWrhF3A1TRT4IgmBc5PBaLMqhwf7IjbNP7aSMLOSINnkkWczZ5ujkk09uTjrppBR2NaO1F5vtNWJ2uzwIVbU1OLlIw4ZXuZNzEWDbqXRh659gcZG6YfJIjGVMFuzhaH9Jos0OJHYQsdm5xGKFqC3UYb+syrR5vslphPiDIJg11g2IDHB+iGRaaT+NFfIjCzknYo85BtLSdB45nhpG1ea+XIbPeMYzxq6WHywm8uQsTnD/S3jXbF8yDHKarrrqqvTcIpi2sFgQDIu2aDJw+umnNyeccEIKUdi/kLdXxXl2KW8h5D2/k1TMM8dTx06xW3WbDoIgmAUmkPbPPvHEE5OGmtaq8In2WpU0nHdxYDCFOmJwXl64hHle3fcSCeK8HoMWtVhZaJWgPVU13rPPPjtNAoJgWjBlCgJb1m8vX3bJe9obMSd06mewXLjH09prNQjamMVeq9NkItUlHCGswTPXtidnsFxIIOfpqFE3MHva+iE3QK1BRne//fbbYtFMEEwKz5q9FtWCs5DGSmsro/fcc88Uyg8Rt/yEdzWYBYverkJ5BUMjR04oqsYuD3IlB2GlzqWXXpqeP+EJTwiDGwTBVGBL9t133yTebRkZBNNGWtEDH/jANCn0WDQmCq0Gaw/hCzlJNc985jNTNfh+iZtCH6985SuTEDzrrLMiuTwIgqliKIsJYrAWCY9cMBL96skprmrFYBsM7DnnnJOeC6vGauYgCKZNiLhgrRJCLhgJbuW2qvnCpjYhb+Ozn/1s2gtTDmWsVg2CIAiC6REjajAy69at6z3bhJWsF154Ye/V5lxwwQXp5y677NLsvvvu6XkQBEEQBJMTQi4YGUKuLYyRt2crueGGG5qPf/zj6bmVg3Ul/iAIgiAIxieEXDAye+yxR7Prrrv2Xm3C9lu2aCuxk4NVrRZBKFXTVr4kCIIgCILxCCEXjIwVp/e///17rzZhl4eLL76492rDIgf5cdddd10qymqhQxAEQRAE0yOEXDAyVp3ac7et1AghlyvaqLL/qU99Ku0rp+yI/wmCIAiCYHqEkAtGxqpT27HttNNOvXc2cfnllzfXXntten799dc3l1xySXpuG6/YfzcIgiAIpksIuWAsrD5t2yv1mmuuaa644or0XH6c7bt47g499ND0XhAEQRAE0yOEXDAW9kptKyVis3JeOfly73znO9N7tvbiwQuCIAiCYLqEkAvGgpfN/oY1Nsf/zGc+kxY4vP/970/vPfShD00/gyAIgiCYLiHkgrHZf//9W3dpIOR44+TIbbfddmmz4SAIgiAIpk8IuWBsdtttt+be975379UmvvSlLzXr169Pz+91r3u15tIFQRAEQTA5IeSCiTjkkEN6zzZx8803N1/84hfT7g+EXtverEEQBEEQTE4IuWAiHvWoR/XdBF/hYLXjtt122947QRAEQRBMkxBywUTYcut+97tf79Xm7Ljjjs2ee+7ZexUEQRAEwbQJIRdMBG9c2+pV3POe94xN8oMgCIJghoSQCyZCHtxee+2Vtu2qWbduXes2XkEQBEEQTIcQcsHE7LLLLs2uu+7ae7UB+XEPechDeq+CIAiCIJgFIeSCiSHk7nrXu/ZebeDAAw9MOXJBEARBEMyOEHLBxGy//fapzEgZRrWaNQiCIAiC2RJCLpgYeXJ77713s80226TXCgArOxIEQRAEwWwJIRdMBSVIhFKJOqtYd9hhh95vgiAIgiCYFVv98Ef0ngfBRFx00UXNjTfe2NznPvdJZUeIuiAIgiAIZkcIuSAIgiAIgo4SodUgCIIgCIKOEkIuCIIgCIKgo4SQC4IgCIIg6Cgh5IIgCIIgCDpKCLkgCIIgCIKOEkIuCIIgCIKgo4SQC4IgCIIg6Cgh5IIgCIIgCDpKCLkgCIIgCIJO0jT/D0AzXySkhgKLAAAAAElFTkSuQmCC;" vertex="1" parent="1">
          <mxGeometry x="586.46" y="150" width="67.07" height="15" as="geometry" />
        </mxCell>
        <mxCell id="uCL6kulFOS3kejgTl3lf-29" style="edgeStyle=orthogonalEdgeStyle;rounded=0;orthogonalLoop=1;jettySize=auto;html=1;" edge="1" parent="1" source="uCL6kulFOS3kejgTl3lf-27" target="uCL6kulFOS3kejgTl3lf-14">
          <mxGeometry relative="1" as="geometry" />
        </mxCell>
        <mxCell id="uCL6kulFOS3kejgTl3lf-27" value="return value of f" style="rounded=0;whiteSpace=wrap;html=1;" vertex="1" parent="1">
          <mxGeometry x="560" y="190" width="120" height="60" as="geometry" />
        </mxCell>
        <mxCell id="uCL6kulFOS3kejgTl3lf-30" style="edgeStyle=orthogonalEdgeStyle;rounded=0;orthogonalLoop=1;jettySize=auto;html=1;" edge="1" parent="1" source="uCL6kulFOS3kejgTl3lf-31" target="uCL6kulFOS3kejgTl3lf-34">
          <mxGeometry relative="1" as="geometry">
            <mxPoint x="220" y="110.00000000000011" as="targetPoint" />
          </mxGeometry>
        </mxCell>
        <mxCell id="uCL6kulFOS3kejgTl3lf-31" value="Start" style="html=1;dashed=0;whiteSpace=wrap;shape=mxgraph.dfd.start" vertex="1" parent="1">
          <mxGeometry x="180" y="60" width="80" height="30" as="geometry" />
        </mxCell>
        <mxCell id="uCL6kulFOS3kejgTl3lf-32" value="End" style="html=1;dashed=0;whiteSpace=wrap;shape=mxgraph.dfd.start" vertex="1" parent="1">
          <mxGeometry x="180" y="270" width="80" height="30" as="geometry" />
        </mxCell>
        <mxCell id="uCL6kulFOS3kejgTl3lf-33" style="edgeStyle=orthogonalEdgeStyle;rounded=0;orthogonalLoop=1;jettySize=auto;html=1;" edge="1" parent="1" source="uCL6kulFOS3kejgTl3lf-34" target="uCL6kulFOS3kejgTl3lf-37">
          <mxGeometry relative="1" as="geometry" />
        </mxCell>
        <mxCell id="uCL6kulFOS3kejgTl3lf-34" value="Calculate value of z" style="rounded=0;whiteSpace=wrap;html=1;" vertex="1" parent="1">
          <mxGeometry x="160" y="110" width="120" height="60" as="geometry" />
        </mxCell>
        <mxCell id="uCL6kulFOS3kejgTl3lf-36" style="edgeStyle=orthogonalEdgeStyle;rounded=0;orthogonalLoop=1;jettySize=auto;html=1;" edge="1" parent="1" source="uCL6kulFOS3kejgTl3lf-37" target="uCL6kulFOS3kejgTl3lf-32">
          <mxGeometry relative="1" as="geometry" />
        </mxCell>
        <mxCell id="uCL6kulFOS3kejgTl3lf-37" value="return value of z" style="rounded=0;whiteSpace=wrap;html=1;" vertex="1" parent="1">
          <mxGeometry x="160" y="190" width="120" height="60" as="geometry" />
        </mxCell>
        <mxCell id="uCL6kulFOS3kejgTl3lf-38" value="" style="shape=image;verticalLabelPosition=bottom;labelBackgroundColor=default;verticalAlign=top;aspect=fixed;imageAspect=0;image=data:image/png,iVBORw0KGgoAAAANSUhEUgAAAUcAAABACAYAAACJO7VnAAAAAXNSR0IArs4c6QAAAARnQU1BAACxjwv8YQUAAAAJcEhZcwAADsMAAA7DAcdvqGQAABeiSURBVHhe7d0JvG1j+QfwZShTKCGkkplCUoQKUWTM2GCmopRUolF/Q8ZSaFDGriGusZEyzyQKmYWIBjKkiUr/vu9nP7dltfbZ+9yz9+kePb/PZ33Ovmuv4R2e5/dM77vvdP/8F6pEIpFIPAPTd/4mEolEooYkx0QikWhBkmMikUi0IMkxkUgkWpDkmEgkEi1IckwkEokWJDkmEolEC5IcE4lEogVJjolEItGCJMdEIpFoQZJjIpFItCDJMZFIJFqQ5JhIJBItSHJMJBKJFiQ5JgaO3/zmN9Xtt9/e+VdiWPj5z39e/f73v+/8KzFoJDkmBorbbrut+uAHP1hdddVVnTOJYeH73/9+tccee1T33Xdf50xikMgfu00MDHfeeWf1sY99rFpiiSWqgw46qHP2mSBujieeeKJ6+OGHy7lFFlmk/E2MDv/4xz+q97znPdV0001Xfe5zn6vmm2++zjeJQSDJMTEQPPTQQ9Vee+1VPfLII9XRRx9dzT777J1v/o3ddtutuuGGG6q//OUv1d///vei1K95zWuqr371q+XztAgEhMSfeuqp6gUveEH1vOc9r/PNtIFf/vKX1a677lotueSS1Wc+85lprn0TGRlWJ8YMRHfCCSdUv/jFLwoBdlPQxRZbrFpjjTWqF73oRYUMp59++mrVVVcdNTE++uijJZT829/+1jkzPPz0pz+t3ve+91XbbrttdfLJJxeyHC/o3wMPPFA99thjnTP/iRe/+MXVVlttVf34xz+uzj777M7ZxCCQ5JgYM+64447qe9/7XvXa1762euUrX9mV7JCMHNnSSy9d/o0cX/3qV5fP/eJ3v/tdecYnPvGJ6rrrruucHQ4Q4VFHHVXdf//9JQ1w7733lpTAeMC7L7vssuqjH/1odcABBxQD1IYZZ5yxGJyFFlqoOu6446p77rmn801irEhyTIwZhxxySCHEt7zlLSOGdcjwT3/6UwnBkcxzn/vc6uUvf3nn2/6AMHhzDz74YAnPhwntfclLXlL6Jp+39dZbFzIaDwjjeap33XVXqf6PRMovfOELq7e+9a3VX//61+orX/lK5+xw8Mc//rH65je/WQzGsx1Jjokx4cYbb6xuuummav75569e9apX9QyReX6//e1vy2fXzzLLLOVzP0AQ559/fvnsvpe97GXl87CgL5/85CerU045pTrttNOqpZZaqvPN8PHkk08WYgQFLkTdDdrJe5xtttmqq6++uhTGhgUGSZX8f6FCnuSYmGo8/fTTJdc4wwwzVCussEI155xzdr5pB3L71a9+VXKG8IY3vKH87ReKPe4HHuq8885bPg8TSGnhhReuZp555s6Z8cEtt9xSvDTEt+KKK45IjjDPPPNUyy23XMlTSnGYm8TYkOSYmGrwAn/2s5+VUHP11VfvnO0OimtxuPCPsq+00kqdb/oDb+XPf/5z+cyLezZXZqUPgMFBzr08cnjzm99ccpU/+clPRizijBXjlXf9b2OqydEkyB+1Ve+EBKzeRITEN8Fq6xdQ8Mcff3yKkrbBvRL4I13TD4zvH/7wh65t6Qb5Ku83D6MVZNdrtz728j54N4iO56gg0AtCMmE4qFirtHqHfjp6tfXmm28u70MU/ZBxE+bO3PaTqyQHxrCfsTde3eY6xnO08yivCsaobVlUGxTDwK6Z8LAHDf0ZrUyNFfUxHM93T9U6x+9+97vVscceWwTNhOyzzz5lDRgQXtXE5z//+eX8RIKqq8qgquQcc8xR7bjjjtW6665bPCMCd+SRR5adH4if52NtWawxA0pnXH70ox+ViQTLVzynXy/JmAqLzjnnnFJ0MD3aIuG+0047dQ2vKD5vw3IOJIJ0kJb5cV+vfJn3fPvb365OP/308l73zzrrrKXIsv3227eGzMbqrLPOKrm/yZMn9/RuFBa22267sm6Ql/OOd7yjrHGMHJkq9p577lmKIHD99deX5+sb2H1D6b3HeIbn6PPGG29cPjehX3KikyZNKl4u0nvOc55T3mUnz6KLLtq58t+45JJLqiOOOKLMuVyqNglZm2CEjLcqMblffvnly7WI3/j98Ic/LPlKxQv/nnvuuav111+/2mabbZ4xj0hT+8hfqOOFF15Y7vEsc0cG5VkVhXiSbXCv+UIkH/7wh6vNNtus883gIFqw6uAjH/lIWYY1TBjTM844o+hTjCGZXGeddaoddthh6JHDDP/3L3Q+9wQhPfTQQ0tFjPITDsJ66aWXVq9//evLhJ955pnl31bs99t4nXaY3EEdFKifUCSggqrNCyywQCGD73znO9W1115bFJVSf+ADHyiKRbkRpv5fccUVJQFuOQqFp2wW5Vp3ttFGG5VqLCFHWgR6pAICL++CCy4oS1QQMOVFqkgEySEfyrPmmms+o18US6hKKQkSxX/ve99byIIyXnTRRdWpp55akvWUrI1ceUiE3dy5xq4LZGz+vFefVlllldKfgPZ6H6G1kFs7e0H7PQ+CWBDKu9/97uJ5MgjOLbPMMoWUTjrppCJLyNp75CrNrXYY/1//+tflkO+M5UF1mC+GhpGmaMZl8803rxZffPHq8ssvL/3VT2MDZPAHP/hBtf/++xcSQ4iuIwsbbrjhlOsCvrPg3XPJj7WG9jsrNB144IGF2Ndaa63qXe96VzGg5EV/XItYYi7MoYq/daL646+2x/eud543jxg4Hm0gFxdffHEZL6sALK1qm++xgIevILPyyitXL33pSztnBwuypfD2oQ99qLrmmmvKDipkqO9kksHhwDRlctAYledIeffdd9+S/OUputWEEVoTQ6B9Zll0pB9yQrjnnntuUdBBAsmtttpqfbWBUrBOlk4cfPDBZdnGJptsUnJcSI0is9gUBPkAr2LttdcuxEXQEegb3/jGQp6RvKeQlMNk+/vZz362NbFP4I455phCHIoMCBLhaDtLTdEQJiWiqLFNTLvPO++86vOf/3z5rI3vfOc7q5lmmql8b34QjvcKzSj96173uvJdQNvc77lbbrlltfPOO08ROJ6WXRdgO2CdgBRHrMHjlSE39/XCYYcdVgo4IFz81Kc+VRQ45uiLX/ximQNE8oUvfKF4q8YekI4dOORriy22KDIW4E2YhyaE/QwWA2cMY9xiTK+88srq/e9/f/HkQHXYcxlCc81z/fjHP17euffee1frrbdeuQ60i8Ly1IwbojVGCNR76IJ55PmBuTAPyNccf/3rX5/iIQNvL8Juz6ETjJv3xrgjOn0dSabNlzlnrIzvoL2rYXuOsVSILpBZUaj3mF9cYzwYGRxknF7xild07hw8+jYrhAE5qpxRJh5kHCwzorAAlSXul5SAhWQdWOF+D4PjINwOxOHgxTk8zza1foEgWEPh2VxzzVXaRCHAshOEt+mmm04hRog0AoHmMSBGnl6d/HwmzBSjW67LuH7jG98oXpJr7TDhicb4IQX9YUQISH2dnbGg5J7LI3r7298+hRjBM8KjJ3TSIc028Aq1Xz+EYXVLbJ55LN7ZtNAIPfLK1tn1g8ijUXpKTJbqcsJTM1aiEcSmLxQE4fCeIlVBvpyPo40YgZK5h7dNmcDz9ZecmGcpCzAPiJsxDBIU7kcu0XvqYDjMqfH1/tgn7nqkHuF1QD/121/vouh1mHvvMM4hu8ZVe6KfxqE+Xm0gv+D53jORQAbpgUjHmFpGRa9ifhkr+u46MlnXx2Ggb3LUQG4uayQ8ZJFM2IILLljcaw1HjKyoie4XCIR15tX0ewh/469jv/32Kwev1oGshTq9BCnAw0MS8nOEE8mHJ2ty2kLGUAZgvRBLc7I8N57juXViC8hvCb8oLS8KQdeV3TjLNRknHloIPwJBXp7PS37b297WumaQ8ns3z1IfKXQd+hrnYl1dAEnzbjy77uUAkmVUIAhmJLg2nq+PI1l8xHv33XeXNgMlV8ihFPoobO0HZDLINtpKJnh1ZFhRJ+aW588Q8bzNE1JFou4z9s138uwYSPIPrgXzw0jWiTHA0GgPY9U0NgHbBb072hnz3S8iN0wukP9EAuMpcmBg3vSmN5V0SR08brphPszbsML6wKjI0YQ3E/MUDhER9t13370vRamDECAAeZTRHNox0tFGFN1gsIVfsZWNpwYstUlo5ppA0QMQIk+GV9CEsJxC66NQqxniINhJkyYVYdAG4WLd8wOEaQGycGz77bcvioU0eEUU2rxoY4SMTVCQKGh4T9Nz1L4gIUbKOJx44omFNBlD7xauN9tVv6+fseZpMRbGgtDrbxPySOC5rkUk4DNPEhRQmm3phug34yME/tKXvlQ8RrKqjxEGA7kVLsqlASKLOZYSacq1c8YLyUmxIDVAaDzgZq7PuIdx0P7wZJu49dZbS7sRtNRK3VD2g3BMPMMc9QtyEh71SAeDoy+KY23f1w/P6zddZs45Ogwjp0taoznP0gv0QARkrtpkaJCY6mytweT+ExAsL4wYtps7LFBuBGNSKKSkObDa4Rk0wb0H90jwt0HY63kENnKIAedZytiGhTjbnuMeHgrlDIVzj3sJlDG3O6IbeE1BYu5vKi2yibCYhyY9gUSE6PKICLje7oBnBnm1fd+EsQB94YU274nxAG00HtFWCqMfMJq92BG2aytiQojInxFSuIj2A4OL8CgkUrFWEOkhJ9c3oRgQ3i9S52Fqr+ijTWkZm0gL2PESaZk6tJNhplvmta1C3gsxrvpW718vIDM5XfXZkQ65YPlmY9n2ff3wvH4XpCt+hi7w6tuMvb5xfIxdU46Hgal6g84aTEqk8GI5y2gt3LQKlo71Bl5Am0dIESgPmKw2AmVdVaoJKEWPNWgBll0YF3k7ytavt8tqxxY8Sj1SeOEdoSTIHpnXIaflF2cQVn0OzTGyYvQoQxOuDQHtFb55fxgT49kWchoH/QLGxJiGoiv68Hq9czRFAJ4vMq3n6rRFNdcypPBGm+CpKmqAKrrlWCOBLDAsvL3wPOvwTteEF6US3gbkKRIz9sagmcroB+Etmpvocz/QbpV3P7Qx0iGVw+uVG2/7vn54nlUT/RBZbAvVZsaDXP+3MVXkSHBU21R0eRhj8RgJAotBMQZ5qKpNDVh4xEURLYdohsIg5Iq8EEFpK0gIqSMvSbmaW92QJ0UIyMP1A8Lv/RQYLIXplr8ytkHQ+sMzbQodhd5ggw1KiKmaKoRedtllp4Q0PDahVBO+jxwq4hoJSCE8P6TX5jWF9wXGs77+MHaLIHf51X7h2shHq0rzDCOHJ89qTWcbtIUcgOJM3Wg0YR6F3wyE69rWTeq/KAuB8iq75Ux56bxV4JW2yV4vhLE1N6PxrrTd3CDkkQ4OA3lj5Nq+rx+e10/oSz4ZQCBX9KWbTI8nRk2O8jcW7hI2XmOz84QKeepwP6BYcpXCnUEe3HrkMFrIk7jPJBHiNgFDvhFGyQk2jYO+q6ZHRdKaR8JHkWJtIJLz70CvRdoBz3ZfjK81gd3AQFgzBzxcHksoOnK1XhUh8qQQp4KaXI4VCLxJ11L6Ns/R+ASBRrjYDeZYez2Pl9umMDxL5GFMedl1EoxdNe6te9fGwULrCMdAey3LstREforxsocb6auQi3bi2UFETZgjbUHSzWp/vRAHnsGL1z/E0ZZLlI+MaER+moFyveiLnAQUoUJmvLcO77BcSIphJMT93hHzM63DWISB5TGP9peahoW+yRFhSM7bOaBSzA1vkgJhtVvAdaG8vWAw5DG+/OUvD/SwHmo0lhMQlpybvlJg7n0T+iUvFGGUXGITlgHJofBAWcAItSyCZlg8w9jVPaheVUltcr8+EfwImbr9+IJ3yPMFsTFksZMHLDo2V5YwOZCKZ2qv50uIIzPtbAvbzVsUMyLE74bwAowXwmmGewhGW7WBt6QqH14pb4qnDDzaOjny2Mx1XdZieZO8sXWVUYn3PO0VJkcVtE0JGQ1rRwFJR1rFnMuz1Q0aIOYgWSTclDkyxWtkqPRbNRzIiLWtQZpkxfzG8+uVWv2zO2vy5Mk9PaogbyQ9UcjRmMU4m6deHjM5EYn4O0z0xR4aIScglCYABI6HaMJZKocw0no9HgAr3S8xuY77jYgGebRZ8F6g5EEmCIIn0IS+R16I8LXtKabMUXkN7xqZIiEKiWyQi9ApDEwocRuEZdbg8eqs9xN2BJm2ERNl4oUwUjxcHnBzkXb9p794jc35Mp/6SGjbvFoCHCTtXSOBEZBn1C7jUEcYJCRjnHbZZZcSkgUiL4gUhKxBDmSOhyetEHOtvXKskdszzs2VBshPe52XTmhCWxCU98gDy9EiLsSEsOoy4X31Qovrm/A+xR+w8F3F1X2IHamSD/BOYw7GNcbAmLnWTie5/aZD0oRxNCfmbaKQI0h5AK4ZyTvmYYpeLQ5vLj0bNPpiMNvTWC6TRih5HZZGmCwemqqUXQUESJjZXJ80UYD06gWSNkFERggKeBbNAgdQeAfYkUIZ4ncPjRvwyqyhRK6E2dhFHjGA2Ci78baDRfqBp4j8FRo8w/lmqGe+3COcE57Z9YOM60AoyMjidnMW5KitlPRrX/taIU4pCvPeBAuPpP1FNiNZcf2zSB3JGIMgL4rPqzr++OPLNXaqWFNZR7QbWQXRGadvfetbxQjVdyR5hqq+Nqn0WpNbn0P3CY0RiBRDm0cceU/PQcbGwz0cAVVrzw4gNOTtGm2L6nUd+hhjo/iljUiR4RJRhMdk/IPMGBPXeS5vUqSmvb3y0gwPj8q86Vu/Dsq0AEZClZqhsdmkSZDmzljbRcVRsC/feA4TPfdWG3BCRpn8laC2RELYSCkQCmEjKM7L9bSFThMBFmTHCnw51bbkP2WW06LoFLMeqgYokCIG5eXhIdRJkyaVfBMhCAVDrPaNGkuVYWRGmZCT8BBpUEzKb1wRtnGlRAgScSJCnoX75A7lpYTLPGB7vP3oRFvIzouRX2WJGQTXs8RyeH48w3nGzzKhbkrmPA+U4Npv3mYoAoiGcDMSyIHi8wD00WfvQozNsBFRGAsGCdF5lwgGyfqfDuter7FBNtZUClvJpH6RT/k948KLs/TM/vHm2kXgEfsBDjLAEJEHe3ltBWQM63JNke3mYJykV6QimtA21/kvHRgz/dF+88WhiNSK7+ia6zggPFShvIovGWOkwgh0A33UVmNgM0ZboXCsQFrD2FuN0OXPVfXJCB0w1uZOQQ4hkm3jyUmgC01ZGTR67q2mnBQ7EtkaHAosV4gEhMVCaTsOWPq6AE0kUHRLFXh7n/70p5/hJQQQEk9Zn1V46zmwgPERblECpEdYeR22WDavRwyUiydEgRGp91IO3qGtbyyk++rj6h1ITdFBAYzHQMGQntSH4grl6BaGeS/DpmKLTBCW97LePEn3a7dndgOl1y9/jUWvH6+VOuAhI2DkpY+8ZwUr72obb0D6hx9+eJE1CuEe8iZUbxK3cUEuFJhSGRdE5/mUj3FCqN2Ixv2MldwwxWSEpDOEw82x0G+VcEUvPka34pjrkJa54kXy5pEzo1WfU16rfCci4KmKKnj28SvfvWAu5VvlZrW/F5lODbTLeAxjb7Wx93wkyFHx2ZiTE6kh+mNMxotjpuonyxKJgPAd4fkBBkQxUQ3jRAdjJ2VjJQXPahg/VwbDJMdpDRMnKZGYJhGhsNxYVJUT4w8FQJ6uVMHU/BBwv+DJecewQ9ppAUmOiTFBLlHoLx0gLcCDSYwvpA1s05MPtClDCmFYkJOVK+21a+jZgCTHxJggjBZmURq5z1jzlxg/8Bit65QvVsUdJhQDrUZpW8HwbEOSY2LMUBhRFVeNVt1N73H8oIijaMpzt/avn8JNoj8kOSbGDBVjobUKt/WwsY86MXxY9oIcLfJXpU4MDkmOiYFAWB2/62mpk+U3ieHCEiLL6Rgmi8R77Z5JjA65lCcxUFisbbG1xc3W8iWGBzufjLPdR/8LOcDxRpJjYuCwM8UOorYdKInBwaJ6C72Hsdg7keSYSCQSrcicYyKRSLQgyTGRSCRakOSYSCQSLUhyTCQSiRYkOSYSiUQLkhwTiUSiBUmOiUQi0YIkx0QikWhBkmMikUi0IMkxkUgkWpDkmEgkEi1IckwkEokWJDkmEonEf6Cq/h+S2MnXPkKMdQAAAABJRU5ErkJggg==;" vertex="1" parent="1">
          <mxGeometry x="188.47000000000003" y="150" width="71.53" height="14" as="geometry" />
        </mxCell>
        <mxCell id="uCL6kulFOS3kejgTl3lf-41" style="edgeStyle=orthogonalEdgeStyle;rounded=0;orthogonalLoop=1;jettySize=auto;html=1;entryX=1;entryY=0.5;entryDx=0;entryDy=0;entryPerimeter=0;" edge="1" parent="1" source="uCL6kulFOS3kejgTl3lf-7" target="uCL6kulFOS3kejgTl3lf-31">
          <mxGeometry relative="1" as="geometry" />
        </mxCell>
      </root>
    </mxGraphModel>
  </diagram>
</mxfile>
